<mxfile host="app.diagrams.net" modified="2023-06-19T15:31:23.787Z" agent="Mozilla/5.0 (Windows NT 10.0; Win64; x64) AppleWebKit/537.36 (KHTML, like Gecko) Chrome/114.0.0.0 Safari/537.36" etag="e8qGiGFEA9AZPGKk7u6P" version="21.5.0" type="device">
  <diagram name="‫صفحه - 1‬" id="DGaD1BDIckdY_yjKFJ09">
    <mxGraphModel dx="2501" dy="764" grid="1" gridSize="10" guides="1" tooltips="1" connect="1" arrows="1" fold="1" page="1" pageScale="1" pageWidth="827" pageHeight="1169" math="0" shadow="0">
      <root>
        <mxCell id="0" />
        <mxCell id="1" parent="0" />
        <mxCell id="xZSIRHJfl0Kb_YYDSqgU-1" value="&lt;b style=&quot;font-size: 18px;&quot;&gt;subscriptions&lt;br&gt;&lt;br&gt;&lt;/b&gt;id&lt;br&gt;user_id&lt;br&gt;type&lt;br&gt;market&lt;br&gt;status&lt;br&gt;price&lt;br&gt;expire_at&lt;br&gt;deleted_at&lt;br&gt;created_at&lt;br&gt;updated_at" style="rounded=0;whiteSpace=wrap;html=1;" parent="1" vertex="1">
          <mxGeometry x="10" y="370" width="210" height="200" as="geometry" />
        </mxCell>
        <mxCell id="xZSIRHJfl0Kb_YYDSqgU-2" value="&lt;b&gt;&lt;font style=&quot;font-size: 18px;&quot;&gt;apps&lt;br&gt;&lt;/font&gt;&lt;/b&gt;&lt;br&gt;id -&amp;gt; string&lt;br&gt;platform_id&lt;br&gt;name&lt;br&gt;deleted_at&lt;br&gt;created_at&lt;br&gt;updated_at" style="whiteSpace=wrap;html=1;aspect=fixed;" parent="1" vertex="1">
          <mxGeometry x="-500" y="370" width="200" height="200" as="geometry" />
        </mxCell>
        <mxCell id="xZSIRHJfl0Kb_YYDSqgU-3" value="&lt;b&gt;&lt;font style=&quot;font-size: 18px;&quot;&gt;platforms&lt;br&gt;&lt;br&gt;&lt;/font&gt;&lt;/b&gt;id -&amp;gt; string&lt;br&gt;deleted_at&lt;br&gt;created_at&lt;br&gt;updated_at" style="rounded=0;whiteSpace=wrap;html=1;" parent="1" vertex="1">
          <mxGeometry x="-750" y="370" width="200" height="200" as="geometry" />
        </mxCell>
        <mxCell id="xZSIRHJfl0Kb_YYDSqgU-17" value="market values -&amp;gt; app store,google play,...&lt;br&gt;&lt;br&gt;status values -&amp;gt; active,pending,expired&lt;br&gt;&lt;br&gt;duration values is day(s)" style="whiteSpace=wrap;html=1;rounded=1;arcSize=50;align=center;verticalAlign=middle;strokeWidth=1;autosize=1;spacing=4;treeFolding=1;treeMoving=1;newEdgeStyle={&quot;edgeStyle&quot;:&quot;entityRelationEdgeStyle&quot;,&quot;startArrow&quot;:&quot;none&quot;,&quot;endArrow&quot;:&quot;none&quot;,&quot;segment&quot;:10,&quot;curved&quot;:1,&quot;sourcePerimeterSpacing&quot;:0,&quot;targetPerimeterSpacing&quot;:0};" parent="1" vertex="1">
          <mxGeometry x="-10" y="255" width="260" height="90" as="geometry" />
        </mxCell>
        <mxCell id="xZSIRHJfl0Kb_YYDSqgU-20" value="" style="curved=1;endArrow=classic;html=1;rounded=0;exitX=0;exitY=0.15;exitDx=0;exitDy=0;exitPerimeter=0;" parent="1" source="xZSIRHJfl0Kb_YYDSqgU-1" edge="1">
          <mxGeometry width="50" height="50" relative="1" as="geometry">
            <mxPoint x="-60" y="380" as="sourcePoint" />
            <mxPoint x="-10" y="330" as="targetPoint" />
            <Array as="points">
              <mxPoint x="-10" y="380" />
              <mxPoint x="-60" y="330" />
            </Array>
          </mxGeometry>
        </mxCell>
        <mxCell id="rm-5BbVESWa_7D3SLS1H-2" value="&lt;span style=&quot;border-color: var(--border-color);&quot;&gt;&lt;b style=&quot;font-size: 18px;&quot;&gt;activity_log&lt;br&gt;&lt;/b&gt;&lt;br&gt;&lt;font style=&quot;font-size: 12px;&quot;&gt;use spatie activity log for save subscriptions processes in kernel&lt;/font&gt;&lt;br style=&quot;border-color: var(--border-color);&quot;&gt;&lt;/span&gt;" style="whiteSpace=wrap;html=1;aspect=fixed;" parent="1" vertex="1">
          <mxGeometry x="310" y="370" width="200" height="200" as="geometry" />
        </mxCell>
        <mxCell id="Ej1vRbxgX4clJIg2gYgX-2" value="properties must be , status, duration,price,type" style="ellipse;whiteSpace=wrap;html=1;" parent="1" vertex="1">
          <mxGeometry x="380" y="250" width="130" height="80" as="geometry" />
        </mxCell>
        <mxCell id="Ej1vRbxgX4clJIg2gYgX-3" value="&lt;span style=&quot;font-size: 18px;&quot;&gt;&lt;b&gt;users&lt;/b&gt;&lt;/span&gt;&lt;br&gt;default laravel users table&lt;br&gt;" style="whiteSpace=wrap;html=1;aspect=fixed;" parent="1" vertex="1">
          <mxGeometry x="-270" y="370" width="200" height="200" as="geometry" />
        </mxCell>
        <mxCell id="Ej1vRbxgX4clJIg2gYgX-4" value="" style="curved=1;endArrow=classic;html=1;rounded=0;entryX=0.985;entryY=0.75;entryDx=0;entryDy=0;entryPerimeter=0;" parent="1" target="Ej1vRbxgX4clJIg2gYgX-2" edge="1">
          <mxGeometry width="50" height="50" relative="1" as="geometry">
            <mxPoint x="510" y="395" as="sourcePoint" />
            <mxPoint x="560" y="345" as="targetPoint" />
            <Array as="points">
              <mxPoint x="560" y="395" />
              <mxPoint x="510" y="345" />
            </Array>
          </mxGeometry>
        </mxCell>
      </root>
    </mxGraphModel>
  </diagram>
</mxfile>
